<?xml version="1.0" encoding="UTF-8"?>
<svg xmlns="http://www.w3.org/2000/svg" xmlns:xlink="http://www.w3.org/1999/xlink" width="2599pt" height="900pt" viewBox="0 0 2599 900" version="1.1">
<g id="surface1">
<path style=" stroke:none;fill-rule:nonzero;fill:#ffc800;fill-opacity:1;" d="M 913.734375 46.410156 C 875.121094 54.949219 851.359375 68.6875 820.542969 99.875 C 788.980469 131.808594 774.875 157.425781 765.960938 197.894531 C 758.164062 234.652344 761.507812 291.460938 773.757812 339.355469 C 778.957031 359.777344 783.042969 376.855469 782.300781 377.226562 C 781.925781 377.597656 734.773438 362.003906 677.597656 342.699219 L 573.636719 307.796875 L 475.246094 308.167969 C 421.410156 308.539062 376.484375 308.910156 376.113281 309.652344 C 375.371094 310.394531 364.230469 357.179688 327.101562 519.800781 C 303.339844 623.390625 299.257812 637.128906 295.914062 627.476562 C 293.316406 620.792969 215.347656 313.367188 215.347656 310.394531 C 215.347656 309.28125 175.246094 308.167969 125.867188 308.167969 C 56.0625 308.167969 36.757812 309.28125 37.871094 312.625 C 38.984375 315.222656 46.78125 318.191406 56.0625 319.308594 L 72.402344 321.164062 L 72.402344 748.144531 L 54.578125 749.257812 C 40.097656 750.371094 36.757812 751.484375 37.871094 756.683594 C 38.984375 762.253906 44.554688 762.996094 81.683594 762.996094 C 118.8125 762.996094 124.378906 762.253906 125.496094 756.683594 C 126.609375 751.484375 123.265625 750.371094 108.785156 749.257812 L 90.964844 748.144531 L 89.851562 546.164062 C 89.480469 434.777344 90.222656 345.296875 91.707031 346.78125 C 93.5625 348.265625 119.925781 442.574219 150.371094 556.1875 L 206.433594 762.996094 L 244.675781 764.109375 C 266.210938 764.480469 284.777344 763.738281 286.632812 761.882812 C 289.230469 759.28125 311.878906 664.605469 369.429688 414.355469 C 376.484375 383.910156 383.167969 358.292969 384.28125 357.179688 C 385.394531 356.0625 386.136719 444.058594 386.136719 552.476562 L 386.136719 749.628906 L 368.6875 750.742188 C 355.691406 751.484375 350.863281 753.339844 350.863281 757.425781 C 350.863281 762.253906 365.714844 763.367188 452.96875 764.851562 L 555.070312 767.078125 L 688.734375 812.746094 L 822.398438 858.789062 L 952.347656 815.347656 C 1024.007812 791.585938 1084.527344 772.277344 1087.496094 772.277344 C 1090.09375 772.277344 1149.5 791.585938 1219.300781 814.976562 L 1345.910156 857.671875 L 1466.578125 856.929688 C 1570.910156 855.816406 1587.246094 855.074219 1587.246094 850.246094 C 1587.246094 845.792969 1579.820312 844.308594 1545.664062 843.5625 L 1503.707031 842.449219 L 1503.707031 682.796875 L 1515.960938 692.078125 C 1532.296875 704.703125 1559.769531 710.273438 1589.101562 707.300781 C 1624.746094 703.589844 1647.765625 693.5625 1667.816406 673.144531 C 1696.03125 644.183594 1707.914062 606.683594 1707.914062 546.164062 C 1707.542969 439.234375 1663.730469 382.796875 1584.277344 386.882812 C 1551.601562 388.367188 1532.296875 397.648438 1516.703125 418.8125 C 1510.761719 426.980469 1504.078125 434.035156 1502.59375 434.035156 C 1500.738281 434.40625 1499.996094 424.753906 1500.367188 412.871094 L 1501.480469 391.707031 L 1416.082031 389.851562 L 1331.058594 387.625 L 1238.609375 355.320312 C 1187.742188 337.5 1145.789062 323.019531 1145.046875 323.019531 C 1144.675781 323.019531 1145.046875 298.144531 1146.160156 268.070312 C 1147.644531 229.828125 1146.902344 206.808594 1143.558594 192.699219 C 1132.792969 146.289062 1100.121094 98.761719 1061.878906 74.257812 C 1018.4375 46.410156 960.886719 35.644531 913.734375 46.410156 Z M 996.902344 72.402344 C 1028.089844 80.570312 1051.480469 94.679688 1074.871094 119.183594 C 1145.789062 193.441406 1139.847656 307.425781 1056.679688 475.617188 C 1025.492188 537.996094 962.371094 638.613281 954.203125 638.613281 C 950.492188 638.613281 898.882812 559.160156 873.636719 514.234375 C 819.800781 419.925781 791.210938 334.53125 788.238281 259.53125 C 786.011719 212.375 790.46875 189.726562 808.289062 154.457031 C 840.960938 89.851562 924.5 53.835938 996.902344 72.402344 Z M 545.789062 534.652344 L 545.789062 750 L 516.085938 750 L 516.085938 319.308594 L 545.789062 319.308594 Z M 614.105469 349.382812 C 617.078125 351.980469 592.570312 428.835938 586.261719 435.890625 C 584.402344 437.746094 580.691406 437.375 577.347656 434.40625 C 572.894531 430.691406 571.78125 420.667969 571.78125 384.28125 C 571.78125 359.40625 572.894531 338.242188 574.007812 337.128906 C 576.234375 334.53125 608.910156 344.554688 614.105469 349.382812 Z M 1144.300781 349.753906 C 1148.015625 352.722656 1156.554688 383.539062 1168.066406 433.664062 C 1177.71875 477.105469 1187 514.234375 1188.484375 516.832031 C 1190.714844 520.542969 1284.648438 529.828125 1326.605469 530.570312 C 1335.144531 530.941406 1336.628906 532.425781 1336.628906 542.078125 C 1336.628906 555.445312 1344.796875 555.074219 1219.671875 547.648438 C 1091.207031 539.851562 1095.292969 540.59375 1095.292969 526.484375 L 1095.292969 515.347656 L 1127.964844 516.460938 C 1158.410156 517.945312 1160.269531 517.574219 1159.523438 510.519531 C 1159.152344 506.4375 1150.984375 469.679688 1141.703125 428.835938 C 1132.421875 387.996094 1124.996094 352.351562 1124.996094 349.753906 C 1124.996094 347.523438 1127.964844 345.296875 1131.679688 345.296875 C 1135.390625 345.296875 1140.960938 347.523438 1144.300781 349.753906 Z M 648.265625 362.003906 C 649.75 364.976562 641.582031 392.820312 630.8125 423.636719 C 611.878906 478.21875 611.507812 479.703125 618.5625 486.015625 C 622.273438 489.726562 668.6875 529.828125 721.40625 575.125 C 811.628906 653.09375 816.828125 658.292969 816.828125 670.542969 C 816.828125 677.597656 814.972656 683.167969 812.746094 683.167969 C 810.515625 683.167969 783.785156 661.261719 753.710938 634.902344 C 723.265625 608.167969 696.902344 586.632812 695.046875 586.632812 C 693.5625 586.632812 677.226562 608.539062 658.660156 635.273438 C 597.027344 725.496094 581.0625 747.773438 577.347656 747.773438 C 575.492188 748.144531 573.265625 741.460938 572.523438 733.292969 C 571.78125 717.699219 575.121094 712.128906 655.691406 597.03125 L 675.738281 568.070312 L 623.761719 523.144531 C 573.265625 478.960938 571.78125 477.476562 571.78125 462.996094 L 571.78125 448.515625 L 581.0625 454.457031 C 585.890625 457.796875 590.714844 460.394531 591.828125 460.394531 C 592.570312 460.394531 601.113281 437.003906 610.765625 408.414062 C 626.730469 360.519531 628.957031 356.4375 637.125 356.4375 C 642.324219 356.4375 647.152344 359.035156 648.265625 362.003906 Z M 1265.339844 389.851562 L 1336.628906 413.613281 L 1336.628906 516.832031 L 1274.625 514.234375 C 1240.09375 512.746094 1208.90625 510.148438 1204.820312 508.664062 C 1198.511719 506.0625 1194.425781 494.554688 1181.429688 437.746094 C 1172.890625 400.246094 1165.835938 366.460938 1165.835938 363.117188 C 1165.835938 355.691406 1159.523438 354.207031 1265.339844 389.851562 Z M 738.488281 389.851562 C 773.757812 402.105469 803.460938 412.128906 804.203125 412.128906 C 804.949219 412.128906 807.917969 416.957031 811.257812 423.265625 C 815.714844 432.179688 816.828125 451.855469 816.828125 534.652344 C 816.828125 600.742188 815.714844 634.902344 813.117188 634.902344 C 808.289062 634.902344 627.472656 478.960938 627.472656 474.503906 C 627.472656 470.792969 659.773438 375.742188 662.746094 370.914062 C 666.457031 365.347656 670.542969 366.460938 738.488281 389.851562 Z M 1132.421875 441.832031 C 1138.734375 469.308594 1144.675781 494.925781 1145.789062 498.636719 C 1147.644531 504.578125 1145.417969 505.320312 1122.398438 504.207031 L 1097.148438 503.09375 L 1096.035156 466.707031 C 1095.292969 434.40625 1096.035156 427.722656 1105.316406 404.332031 C 1117.199219 373.144531 1116.457031 372.402344 1132.421875 441.832031 Z M 1380.441406 624.503906 L 1381.183594 842.820312 L 1362.617188 842.820312 L 1362.617188 404.332031 L 1371.15625 405.445312 L 1379.328125 406.558594 Z M 1572.394531 430.691406 C 1579.449219 442.945312 1579.820312 449.628906 1579.820312 545.792969 C 1579.820312 647.152344 1579.820312 647.894531 1570.539062 666.460938 C 1562 683.539062 1560.140625 685.023438 1546.035156 686.136719 C 1534.152344 686.882812 1529.324219 685.394531 1521.898438 677.96875 C 1506.304688 662.375 1503.707031 646.039062 1503.707031 558.042969 C 1503.707031 465.964844 1506.675781 448.515625 1526.726562 428.09375 C 1536.75 417.699219 1541.207031 415.839844 1551.601562 416.585938 C 1562 417.328125 1566.082031 420.296875 1572.394531 430.691406 Z M 892.941406 576.238281 C 899.996094 587.003906 905.9375 597.402344 905.9375 599.628906 C 905.9375 601.855469 895.542969 609.652344 882.917969 617.078125 C 869.921875 624.132812 853.214844 634.160156 845.789062 638.613281 L 831.679688 646.78125 L 831.679688 469.679688 L 855.8125 513.488281 C 869.179688 537.253906 885.515625 565.839844 892.941406 576.238281 Z M 1080.441406 484.160156 C 1080.441406 498.265625 1076.730469 504.949219 1064.847656 510.890625 L 1054.082031 516.460938 L 1060.019531 505.320312 C 1062.992188 499.011719 1067.445312 489.726562 1069.304688 484.53125 C 1073.757812 472.648438 1080.441406 472.648438 1080.441406 484.160156 Z M 614.105469 530.941406 C 635.269531 549.132812 653.835938 565.839844 655.320312 568.070312 C 657.546875 571.410156 602.96875 654.578125 581.0625 681.3125 L 572.152344 692.449219 L 571.78125 594.800781 C 571.78125 541.335938 572.523438 497.523438 573.636719 497.523438 C 574.378906 497.523438 592.941406 512.375 614.105469 530.941406 Z M 1079.699219 530.570312 C 1080.441406 535.023438 1078.957031 541.335938 1076.355469 544.308594 C 1071.902344 549.875 1023.632812 579.207031 1019.179688 579.207031 C 1011.753906 579.207031 1040.34375 540.59375 1054.824219 531.3125 C 1073.386719 519.058594 1078.214844 518.6875 1079.699219 530.570312 Z M 1257.914062 562.5 C 1299.5 565.097656 1334.03125 568.070312 1335.144531 568.8125 C 1335.886719 569.925781 1336.257812 628.589844 1335.886719 699.132812 L 1334.773438 827.597656 L 1215.960938 787.5 L 1097.148438 747.773438 L 1096.035156 650.125 L 1095.292969 552.476562 L 1138.734375 555.074219 C 1162.867188 556.558594 1216.332031 559.902344 1257.914062 562.5 Z M 1080.441406 653.09375 C 1080.441406 722.152344 1079.328125 742.574219 1075.613281 745.914062 C 1070.789062 749.628906 841.332031 827.96875 834.648438 827.96875 C 833.164062 827.96875 831.679688 799.753906 831.679688 765.222656 L 831.679688 702.476562 L 881.433594 674.257812 C 908.90625 658.664062 933.039062 646.039062 935.269531 646.039062 C 937.496094 646.039062 941.953125 650.125 945.292969 655.320312 C 948.636719 660.519531 952.71875 664.605469 954.574219 664.605469 C 956.433594 664.605469 966.828125 651.238281 978.335938 635.273438 C 997.273438 608.167969 1002.101562 604.085938 1037 583.664062 C 1057.792969 571.410156 1075.984375 562.128906 1077.84375 563.242188 C 1079.328125 563.984375 1080.441406 604.457031 1080.441406 653.09375 Z M 758.535156 655.320312 L 816.828125 705.816406 L 816.828125 766.707031 C 816.828125 800.496094 815.714844 827.96875 814.230469 827.96875 C 807.917969 828.710938 594.058594 755.570312 594.058594 752.96875 C 594.058594 750.742188 617.820312 715.097656 683.164062 620.792969 C 689.105469 612.253906 695.417969 605.199219 697.273438 605.199219 C 699.132812 605.199219 726.605469 627.847656 758.535156 655.320312 Z M 928.214844 631.1875 C 928.214844 632.671875 843.191406 682.796875 834.648438 686.511719 C 832.792969 687.253906 831.679688 681.3125 832.421875 673.886719 C 833.535156 660.148438 834.648438 659.035156 874.378906 636.015625 L 915.21875 612.625 L 921.53125 620.792969 C 925.242188 625.617188 928.214844 630.074219 928.214844 631.1875 Z M 928.214844 631.1875 "/>
<path style=" stroke:none;fill-rule:nonzero;fill:#ffc800;fill-opacity:1;" d="M 917.816406 120.667969 C 872.519531 134.777344 835.394531 184.902344 835.394531 232.425781 C 835.394531 283.664062 868.066406 331.1875 915.21875 349.011719 C 982.050781 373.886719 1060.019531 328.960938 1072.644531 258.414062 C 1080.441406 214.976562 1063.734375 167.449219 1031.433594 141.460938 C 1002.101562 118.070312 954.574219 109.160156 917.816406 120.667969 Z M 988.734375 135.890625 C 1012.867188 144.058594 1040.34375 169.679688 1050.738281 193.8125 C 1089.351562 282.550781 995.789062 372.03125 908.90625 329.332031 C 874.75 312.625 853.957031 281.0625 850.988281 240.964844 C 849.5 220.171875 850.617188 213.117188 858.414062 196.410156 C 871.40625 167.820312 884.402344 154.457031 910.390625 141.460938 C 936.753906 128.09375 961.257812 126.609375 988.734375 135.890625 Z M 988.734375 135.890625 "/>
<path style=" stroke:none;fill-rule:nonzero;fill:#ffc800;fill-opacity:1;" d="M 2488.726562 297.03125 C 2471.648438 300.742188 2459.023438 310.023438 2451.972656 323.761719 C 2443.800781 339.355469 2446.402344 370.914062 2459.769531 423.265625 C 2480.929688 506.808594 2487.984375 546.90625 2490.214844 602.597656 C 2492.070312 650.125 2493.183594 657.179688 2498.382812 656.4375 C 2503.207031 655.320312 2504.695312 646.410156 2506.921875 601.484375 C 2509.519531 542.820312 2514.347656 514.976562 2534.394531 445.171875 C 2549.617188 392.820312 2554.816406 335.644531 2546.277344 319.679688 C 2536.253906 301.113281 2512.492188 291.832031 2488.726562 297.03125 Z M 2488.726562 297.03125 "/>
<path style=" stroke:none;fill-rule:nonzero;fill:#ffc800;fill-opacity:1;" d="M 1883.902344 304.085938 C 1877.964844 310.394531 1884.273438 315.222656 1900.242188 316.335938 L 1917.691406 317.449219 L 1918.804688 539.109375 L 1919.546875 760.765625 L 1902.097656 761.882812 C 1889.101562 762.625 1884.273438 764.480469 1884.273438 768.5625 C 1884.273438 773.390625 1898.011719 774.132812 1986.378906 774.132812 C 2074.746094 774.132812 2088.480469 773.390625 2088.480469 768.5625 C 2088.480469 764.480469 2083.65625 762.625 2071.03125 761.882812 L 2053.210938 760.765625 L 2053.210938 315.964844 L 2071.03125 314.851562 C 2082.914062 314.109375 2088.480469 312.253906 2088.480469 308.539062 C 2088.480469 304.457031 2070.289062 303.339844 1987.121094 302.96875 C 1931.058594 302.96875 1884.644531 303.339844 1883.902344 304.085938 Z M 1883.902344 304.085938 "/>
<path style=" stroke:none;fill-rule:nonzero;fill:#ffc800;fill-opacity:1;" d="M 2201.722656 352.351562 L 2147.886719 366.089844 L 2146.773438 409.53125 L 2145.660156 452.96875 L 2127.46875 452.96875 C 2111.5 452.96875 2108.902344 454.085938 2108.902344 460.394531 C 2108.902344 466.707031 2111.5 467.820312 2127.46875 467.820312 L 2146.03125 467.820312 L 2146.03125 585.890625 C 2146.03125 718.441406 2147.886719 732.179688 2169.050781 752.597656 C 2186.128906 768.5625 2200.609375 775.246094 2231.054688 780.074219 C 2279.695312 788.242188 2329.816406 773.761719 2347.640625 746.660156 C 2363.976562 721.78125 2375.484375 676.484375 2364.347656 680.199219 C 2362.121094 680.941406 2358.40625 688.367188 2355.808594 696.535156 C 2342.441406 741.832031 2313.851562 764.109375 2287.121094 750 C 2274.125 742.945312 2272.269531 722.152344 2272.269531 593.316406 L 2272.269531 468.191406 L 2316.082031 467.078125 C 2351.722656 466.335938 2359.519531 464.851562 2359.519531 460.394531 C 2359.519531 455.941406 2351.722656 454.457031 2316.082031 453.710938 L 2272.269531 452.597656 L 2272.269531 395.421875 C 2272.269531 327.105469 2280.4375 332.300781 2201.722656 352.351562 Z M 2201.722656 352.351562 "/>
<path style=" stroke:none;fill-rule:nonzero;fill:#ffc800;fill-opacity:1;" d="M 2470.535156 686.511719 C 2453.085938 697.277344 2446.773438 708.414062 2446.773438 729.578125 C 2446.773438 749.628906 2456.054688 768.9375 2468.308594 775.617188 C 2480.558594 781.929688 2503.578125 783.414062 2517.316406 778.589844 C 2546.277344 768.5625 2557.789062 722.523438 2537.367188 698.390625 C 2521.773438 679.828125 2490.585938 674.257812 2470.535156 686.511719 Z M 2470.535156 686.511719 "/>
</g>
</svg>
